<mxfile host="Electron" modified="2023-08-11T10:12:23.520Z" agent="Mozilla/5.0 (Windows NT 10.0; Win64; x64) AppleWebKit/537.36 (KHTML, like Gecko) draw.io/21.6.8 Chrome/114.0.5735.289 Electron/25.5.0 Safari/537.36" etag="G5h2VODk2UwAvOEsFnyb" version="21.6.8" type="device">
  <diagram id="C5RBs43oDa-KdzZeNtuy" name="Page-1">
    <mxGraphModel dx="493" dy="289" grid="1" gridSize="10" guides="1" tooltips="1" connect="1" arrows="1" fold="1" page="1" pageScale="1" pageWidth="827" pageHeight="1169" math="0" shadow="0">
      <root>
        <mxCell id="WIyWlLk6GJQsqaUBKTNV-0" />
        <mxCell id="WIyWlLk6GJQsqaUBKTNV-1" parent="WIyWlLk6GJQsqaUBKTNV-0" />
        <mxCell id="EULaTHG27PZmIljX3Jic-10" style="edgeStyle=orthogonalEdgeStyle;rounded=0;orthogonalLoop=1;jettySize=auto;html=1;exitX=0.5;exitY=1;exitDx=0;exitDy=0;entryX=0.5;entryY=0;entryDx=0;entryDy=0;" parent="WIyWlLk6GJQsqaUBKTNV-1" source="EULaTHG27PZmIljX3Jic-0" target="EULaTHG27PZmIljX3Jic-3" edge="1">
          <mxGeometry relative="1" as="geometry">
            <mxPoint x="340" y="150" as="targetPoint" />
          </mxGeometry>
        </mxCell>
        <mxCell id="EULaTHG27PZmIljX3Jic-0" value="INICIO" style="ellipse;whiteSpace=wrap;html=1;" parent="WIyWlLk6GJQsqaUBKTNV-1" vertex="1">
          <mxGeometry x="280" y="80" width="120" height="50" as="geometry" />
        </mxCell>
        <mxCell id="EULaTHG27PZmIljX3Jic-1" value="FIN" style="ellipse;whiteSpace=wrap;html=1;" parent="WIyWlLk6GJQsqaUBKTNV-1" vertex="1">
          <mxGeometry x="280" y="460" width="120" height="50" as="geometry" />
        </mxCell>
        <mxCell id="FiR9LNstcRynLbGD8NfN-2" style="edgeStyle=orthogonalEdgeStyle;rounded=0;orthogonalLoop=1;jettySize=auto;html=1;exitX=0.5;exitY=1;exitDx=0;exitDy=0;entryX=0.5;entryY=0;entryDx=0;entryDy=0;" edge="1" parent="WIyWlLk6GJQsqaUBKTNV-1" source="EULaTHG27PZmIljX3Jic-3" target="FiR9LNstcRynLbGD8NfN-0">
          <mxGeometry relative="1" as="geometry" />
        </mxCell>
        <mxCell id="EULaTHG27PZmIljX3Jic-3" value="R1,R2,R3" style="shape=parallelogram;perimeter=parallelogramPerimeter;whiteSpace=wrap;html=1;fixedSize=1;" parent="WIyWlLk6GJQsqaUBKTNV-1" vertex="1">
          <mxGeometry x="290" y="150" width="100" height="40" as="geometry" />
        </mxCell>
        <mxCell id="EULaTHG27PZmIljX3Jic-5" value="Rs,Rp" style="shape=document;whiteSpace=wrap;html=1;boundedLbl=1;" parent="WIyWlLk6GJQsqaUBKTNV-1" vertex="1">
          <mxGeometry x="300" y="390" width="80" height="50" as="geometry" />
        </mxCell>
        <mxCell id="EULaTHG27PZmIljX3Jic-16" style="edgeStyle=orthogonalEdgeStyle;rounded=0;orthogonalLoop=1;jettySize=auto;html=1;exitX=0.507;exitY=0.822;exitDx=0;exitDy=0;entryX=0.5;entryY=0;entryDx=0;entryDy=0;exitPerimeter=0;" parent="WIyWlLk6GJQsqaUBKTNV-1" source="EULaTHG27PZmIljX3Jic-5" target="EULaTHG27PZmIljX3Jic-1" edge="1">
          <mxGeometry relative="1" as="geometry">
            <mxPoint x="340" y="480" as="sourcePoint" />
          </mxGeometry>
        </mxCell>
        <mxCell id="FiR9LNstcRynLbGD8NfN-4" style="edgeStyle=orthogonalEdgeStyle;rounded=0;orthogonalLoop=1;jettySize=auto;html=1;exitX=0.5;exitY=1;exitDx=0;exitDy=0;entryX=0.5;entryY=0;entryDx=0;entryDy=0;" edge="1" parent="WIyWlLk6GJQsqaUBKTNV-1" source="FiR9LNstcRynLbGD8NfN-0" target="FiR9LNstcRynLbGD8NfN-3">
          <mxGeometry relative="1" as="geometry" />
        </mxCell>
        <mxCell id="FiR9LNstcRynLbGD8NfN-0" value="Rs=R1+R2+R3" style="rounded=0;whiteSpace=wrap;html=1;" vertex="1" parent="WIyWlLk6GJQsqaUBKTNV-1">
          <mxGeometry x="290" y="210" width="100" height="40" as="geometry" />
        </mxCell>
        <mxCell id="FiR9LNstcRynLbGD8NfN-6" style="edgeStyle=orthogonalEdgeStyle;rounded=0;orthogonalLoop=1;jettySize=auto;html=1;exitX=0.5;exitY=1;exitDx=0;exitDy=0;entryX=0.5;entryY=0;entryDx=0;entryDy=0;" edge="1" parent="WIyWlLk6GJQsqaUBKTNV-1" source="FiR9LNstcRynLbGD8NfN-3" target="FiR9LNstcRynLbGD8NfN-5">
          <mxGeometry relative="1" as="geometry" />
        </mxCell>
        <mxCell id="FiR9LNstcRynLbGD8NfN-3" value="aux=1/R1+1/R2+1/R3" style="rounded=0;whiteSpace=wrap;html=1;" vertex="1" parent="WIyWlLk6GJQsqaUBKTNV-1">
          <mxGeometry x="280" y="270" width="120" height="40" as="geometry" />
        </mxCell>
        <mxCell id="FiR9LNstcRynLbGD8NfN-7" style="edgeStyle=orthogonalEdgeStyle;rounded=0;orthogonalLoop=1;jettySize=auto;html=1;exitX=0.5;exitY=1;exitDx=0;exitDy=0;entryX=0.5;entryY=0;entryDx=0;entryDy=0;" edge="1" parent="WIyWlLk6GJQsqaUBKTNV-1" source="FiR9LNstcRynLbGD8NfN-5" target="EULaTHG27PZmIljX3Jic-5">
          <mxGeometry relative="1" as="geometry" />
        </mxCell>
        <mxCell id="FiR9LNstcRynLbGD8NfN-5" value="Rp=1/aux" style="rounded=0;whiteSpace=wrap;html=1;" vertex="1" parent="WIyWlLk6GJQsqaUBKTNV-1">
          <mxGeometry x="280" y="330" width="120" height="40" as="geometry" />
        </mxCell>
      </root>
    </mxGraphModel>
  </diagram>
</mxfile>
